<svg width="581.16" height="73.049" viewBox="0 0 581.16 73.049" xmlns="http://www.w3.org/2000/svg"><g id="svgGroup" stroke-linecap="round" fill-rule="evenodd" font-size="9pt" stroke="#00000000" stroke-width="0.50mm" fill="#001e2e" style="stroke:#00000000;stroke-width:0.50mm;fill:#001e2e"><path d="M 401.221 0.977 L 404.834 0.977 L 421.533 68.116 L 461.621 0.977 L 465.527 0.977 L 453.223 72.071 L 450.586 72.071 L 462.158 5.323 L 422.119 72.071 L 420.068 72.071 L 403.125 5.226 L 391.553 72.071 L 388.916 72.071 L 401.221 0.977 Z M 62.012 0.977 L 49.805 72.071 L 47.266 72.071 L 14.258 5.372 L 2.686 72.071 L 0 72.071 L 12.207 0.977 L 14.795 0.977 L 47.852 67.53 L 59.375 0.977 L 62.012 0.977 Z M 317.676 39.845 L 313.477 64.454 A 19.346 19.346 0 0 1 308.996 68.16 Q 306.979 69.393 304.493 70.35 A 34.815 34.815 0 0 1 303.32 70.777 A 41.236 41.236 0 0 1 294.529 72.722 A 52.683 52.683 0 0 1 288.574 73.048 A 23.518 23.518 0 0 1 281.34 71.984 A 19.077 19.077 0 0 1 272.998 66.602 A 23.169 23.169 0 0 1 267.749 56.848 A 33.725 33.725 0 0 1 266.65 49.366 A 37.981 37.981 0 0 1 266.623 47.925 A 36.274 36.274 0 0 1 267.139 41.798 L 269.092 30.47 Q 270.605 21.729 275.098 14.698 A 35.606 35.606 0 0 1 280.945 7.637 A 30.486 30.486 0 0 1 286.035 3.834 A 26.751 26.751 0 0 1 299.951 0.001 A 27.693 27.693 0 0 1 306.592 0.754 A 19.307 19.307 0 0 1 315.405 5.47 Q 321.191 10.938 320.996 20.216 L 318.408 20.216 Q 318.408 11.817 313.428 7.227 A 16.741 16.741 0 0 0 305.857 3.29 Q 303.323 2.678 300.35 2.64 A 30.998 30.998 0 0 0 299.951 2.638 A 24.673 24.673 0 0 0 282.428 9.824 A 32.478 32.478 0 0 0 281.689 10.548 A 35.459 35.459 0 0 0 273.129 24.981 A 45.979 45.979 0 0 0 271.68 30.934 A 1347.157 1347.157 0 0 0 270.929 35.235 Q 269.661 42.571 269.413 44.641 A 11.163 11.163 0 0 0 269.36 45.167 A 35.881 35.881 0 0 0 269.273 47.653 A 34.332 34.332 0 0 0 269.287 48.634 A 31.803 31.803 0 0 0 270.036 55.244 Q 271.044 59.659 273.401 62.996 A 19.274 19.274 0 0 0 274.561 64.478 Q 279.688 70.411 288.525 70.411 A 45.969 45.969 0 0 0 296.372 69.766 A 38.155 38.155 0 0 0 301.294 68.58 A 28.578 28.578 0 0 0 306.308 66.493 A 21.824 21.824 0 0 0 310.889 63.233 L 314.551 42.53 L 293.555 42.53 L 293.896 39.845 L 317.676 39.845 Z M 580.957 20.997 L 578.32 20.997 Q 579.541 13.038 574.707 7.838 A 15.878 15.878 0 0 0 565.958 3.072 A 23.463 23.463 0 0 0 561.328 2.638 A 30.4 30.4 0 0 0 551.588 4.165 A 27.685 27.685 0 0 0 546.924 6.226 A 20.482 20.482 0 0 0 542.742 9.251 A 14.829 14.829 0 0 0 538.672 15.772 A 16.276 16.276 0 0 0 538.18 17.882 Q 537.833 20.04 538.219 21.892 A 9.099 9.099 0 0 0 538.281 22.169 A 10.787 10.787 0 0 0 541.6 27.799 A 15.227 15.227 0 0 0 543.628 29.371 A 29.386 29.386 0 0 0 547.201 31.339 Q 549.153 32.257 551.516 33.094 A 70.128 70.128 0 0 0 555.713 34.425 Q 566.19 37.388 571.079 41.597 A 16.291 16.291 0 0 1 572.314 42.774 A 13.108 13.108 0 0 1 576.033 52.06 Q 576.033 53.45 575.781 54.933 Q 574.951 60.352 571.265 64.43 A 23.305 23.305 0 0 1 564.868 69.357 A 29.108 29.108 0 0 1 561.768 70.777 Q 555.957 73.048 549.463 73.048 A 34.7 34.7 0 0 1 542.693 72.427 Q 538.605 71.614 535.439 69.733 A 18.818 18.818 0 0 1 532.178 67.286 Q 526.297 61.779 527.242 52.836 A 25.985 25.985 0 0 1 527.344 52.003 L 529.98 52.003 Q 528.76 60.401 534.131 65.406 A 17.465 17.465 0 0 0 541.119 69.311 Q 544.768 70.411 549.414 70.411 Q 557.373 70.411 563.818 66.871 A 21.368 21.368 0 0 0 568.346 63.604 A 16.087 16.087 0 0 0 572.412 57.423 Q 573.389 54.721 573.389 52.301 A 11.181 11.181 0 0 0 573.145 49.952 A 11.701 11.701 0 0 0 569.351 43.614 A 15.633 15.633 0 0 0 568.018 42.555 A 24.413 24.413 0 0 0 564.98 40.742 Q 561.69 39.059 556.814 37.497 A 94.097 94.097 0 0 0 555.176 36.988 A 98.73 98.73 0 0 1 550.646 35.515 Q 545.317 33.627 542.334 31.715 Q 538.261 29.103 536.562 25.574 A 12.07 12.07 0 0 1 536.499 25.44 A 12.444 12.444 0 0 1 535.348 20.116 Q 535.348 18.792 535.596 17.384 Q 536.426 12.159 540.039 8.228 A 22.667 22.667 0 0 1 546.439 3.416 A 28.191 28.191 0 0 1 549.292 2.149 A 33.385 33.385 0 0 1 561.279 0.001 A 24.679 24.679 0 0 1 567.565 0.773 A 20.497 20.497 0 0 1 572.437 2.735 A 17.079 17.079 0 0 1 577.53 7.017 A 16.174 16.174 0 0 1 579.517 10.255 A 17.937 17.937 0 0 1 581.15 17.327 Q 581.205 19.103 580.957 20.997 Z M 112.842 34.181 L 112.5 36.817 L 77.881 36.817 L 72.217 69.434 L 111.572 69.434 L 111.182 72.071 L 69.092 72.071 L 81.445 0.977 L 123.438 0.977 L 123.047 3.614 L 83.643 3.614 L 78.32 34.181 L 112.842 34.181 Z M 516.26 34.181 L 515.918 36.817 L 481.299 36.817 L 475.635 69.434 L 514.99 69.434 L 514.6 72.071 L 472.51 72.071 L 484.863 0.977 L 526.855 0.977 L 526.465 3.614 L 487.061 3.614 L 481.738 34.181 L 516.26 34.181 Z M 133.545 0.929 L 150.684 33.692 L 178.076 1.026 L 181.445 1.026 L 152.1 35.987 L 171.289 72.071 L 168.164 72.071 L 150.293 37.892 L 121.68 72.071 L 118.408 72.071 L 148.877 35.597 L 130.371 0.929 L 133.545 0.929 Z M 241.455 0.977 L 241.113 3.614 L 215.967 3.614 L 204.15 72.071 L 201.514 72.071 L 213.33 3.614 L 188.281 3.614 L 188.623 0.977 L 241.455 0.977 Z M 374.658 72.071 L 370.605 50.831 L 336.914 50.831 L 325.537 72.071 L 322.607 72.071 L 360.596 1.026 L 363.77 0.977 L 377.441 72.071 L 374.658 72.071 Z M 361.865 4.298 L 338.281 48.194 L 370.068 48.194 L 361.865 4.298 Z" vector-effect="non-scaling-stroke"/></g></svg>